<mxfile host="app.diagrams.net" modified="2023-11-23T21:46:11.263Z" agent="Mozilla/5.0 (Windows NT 10.0; Win64; x64) AppleWebKit/537.36 (KHTML, like Gecko) Chrome/119.0.0.0 Safari/537.36" etag="WXWM_uQq9znOewb1TTIW" version="22.1.3" type="github">
  <diagram name="Page-1" id="JbuV1YXX9QHSJZPmVNRz">
    <mxGraphModel dx="1434" dy="1959" grid="1" gridSize="10" guides="1" tooltips="1" connect="1" arrows="1" fold="1" page="1" pageScale="1" pageWidth="827" pageHeight="1169" math="0" shadow="0">
      <root>
        <mxCell id="0" />
        <mxCell id="1" parent="0" />
        <mxCell id="vRXDOGyiGpTkdlQxwO8P-1" value="" style="shape=image;verticalLabelPosition=bottom;labelBackgroundColor=default;verticalAlign=top;aspect=fixed;imageAspect=0;image=https://amzn.github.io/style-dictionary/assets/logo.png;" vertex="1" parent="1">
          <mxGeometry x="27" y="-30" width="200" height="200" as="geometry" />
        </mxCell>
      </root>
    </mxGraphModel>
  </diagram>
</mxfile>
